<?xml version="1.0" standalone="no"?><!DOCTYPE svg PUBLIC "-//W3C//DTD SVG 1.1//EN" "http://www.w3.org/Graphics/SVG/1.1/DTD/svg11.dtd"><svg t="1704891105645" class="icon" viewBox="0 0 1024 1024" version="1.1" xmlns="http://www.w3.org/2000/svg" p-id="25501" xmlns:xlink="http://www.w3.org/1999/xlink" width="200" height="200"><path d="M619.144533 130.048c0 43.554133-36.317867 78.848-81.169066 78.848s-81.169067-35.293867-81.169067-78.848S493.124267 51.2 537.941333 51.2s81.169067 35.293867 81.169067 78.848z m281.668267 95.573333a19.524267 19.524267 0 0 1 20.753067 18.1248 19.421867 19.421867 0 0 1-16.520534 19.968c-29.5936 4.676267-59.1872 9.489067-88.746666 14.609067-29.525333 4.983467-59.050667 10.171733-88.746667 14.506667l-88.746667 14.267733c-3.857067 0.6144-7.68 1.297067-11.537066 1.9456v172.032c0 9.3184 2.048 18.432 6.109866 26.760533 14.609067 30.242133 51.2 105.813333 64 131.242667l6.007467 12.049067 2.9696 6.007466a98.577067 98.577067 0 0 1 11.4688 51.029334 96.6656 96.6656 0 0 1-37.444267 71.441066l-92.501333 60.347734c-10.308267 6.724267-24.337067 6.8608-33.792-0.9216a26.453333 26.453333 0 0 1-0.2048-41.403734l42.257067-34.269866 21.060266-17.271467 10.478934-8.669867c3.310933-2.730667 7.850667-6.382933 8.533333-7.3728a27.784533 27.784533 0 0 0 7.338667-22.6304 26.077867 26.077867 0 0 0-3.857067-10.376533c-0.6144-0.887467-0.955733-1.262933-1.7408-2.491733l-3.754667-5.632-7.4752-11.229867c-15.189333-23.108267-52.497067-77.824-68.949333-101.888-2.901333-4.232533-9.6256-2.833067-10.513067 2.184533-5.8368 32.802133-20.3776 114.551467-25.224533 144.5888-12.424533 75.298133-25.429333 150.596267-37.000533 225.9968-1.979733 12.9024-12.6976 23.6544-26.112 24.234667a27.306667 27.306667 0 0 1-29.013334-28.398933c4.608-76.561067 7.7824-153.2928 11.502934-229.956267 1.979733-38.331733 3.3792-76.6976 4.676266-115.0976 0.989867-26.794667 1.877333-53.589333 2.594134-80.418133V309.1456l-12.288-2.048-88.746667-14.267733c-29.661867-4.334933-59.1872-9.5232-88.746667-14.506667-29.559467-5.12-59.153067-9.9328-88.746666-14.609067a19.2512 19.2512 0 0 1-16.2816-22.016 19.626667 19.626667 0 0 1 20.411733-16.042666h0.238933l179.643734 9.284266 89.838933 4.642134c29.934933 1.536 157.2864 1.536 187.221333 0l89.8048-4.642134 179.677867-9.284266h0.1024z" fill="#000000" p-id="25502"></path></svg>