<?xml version="1.0" standalone="no"?><!DOCTYPE svg PUBLIC "-//W3C//DTD SVG 1.1//EN" "http://www.w3.org/Graphics/SVG/1.1/DTD/svg11.dtd"><svg t="1704891493617" class="icon" viewBox="0 0 1024 1024" version="1.1" xmlns="http://www.w3.org/2000/svg" p-id="45650" xmlns:xlink="http://www.w3.org/1999/xlink" width="200" height="200"><path d="M729.803175 975.238095c-6.501587-1.625397-13.815873-2.438095-20.317461-4.063492-79.644444-18.692063-151.161905-58.514286-226.742857-99.961905-43.073016-23.568254-87.771429-47.949206-134.095238-68.266666-27.631746-12.190476-60.952381-25.193651-96.711111-28.444445-48.761905-4.063492-107.27619 12.190476-159.288889 30.88254C50.387302 744.431746 20.31746 674.539683 7.314286 598.95873c135.720635 27.631746 290.133333 43.885714 420.165079 44.698413h17.066667c34.946032 0 70.704762-0.812698 104.838095-1.625397 153.6-3.250794 311.263492-6.501587 464.050794-26.819048-33.320635 160.101587-140.596825 292.571429-283.631746 360.025397zM512 0c135.720635 0 259.250794 52.825397 350.273016 139.784127-54.450794 14.628571-112.152381 39.822222-170.666667 74.768254-52.012698 31.695238-102.4 67.453968-150.349206 103.212698-37.384127 26.819048-75.580952 55.263492-113.777778 80.457143-100.774603 65.015873-182.044444 84.520635-248.685714 58.514286-20.31746-8.126984-35.75873-19.504762-46.32381-33.320635-13.815873-19.504762-18.692063-45.511111-21.942857-70.704762-6.501587-46.32381-11.377778-93.460317-13.003174-141.409524C190.984127 83.707937 342.146032 0 512 0zM65.828571 260.87619c2.438095 32.507937 5.688889 65.015873 9.752381 97.52381 4.063492 29.257143 9.752381 60.139683 28.444445 86.146032 13.815873 19.504762 34.946032 34.946032 61.765079 44.698412 22.755556 8.939683 47.136508 13.003175 73.142857 13.003175 60.952381 0 129.219048-25.193651 207.238096-75.580952 39.822222-26.006349 78.019048-53.638095 115.403174-81.269842C609.52381 310.450794 658.285714 274.692063 709.485714 243.809524c62.577778-37.384127 123.530159-63.390476 181.231746-76.393651C973.612698 259.250794 1024 379.530159 1024 512c0 23.568254-1.625397 46.32381-4.87619 68.266667-153.6 21.130159-314.514286 24.380952-470.552381 27.631746-39.822222 0.812698-80.457143 1.625397-121.092064 1.625397C295.822222 608.711111 138.15873 590.831746 2.438095 563.2 0.812698 546.133333 0 529.066667 0 512c0-91.022222 24.380952-177.168254 65.828571-251.12381z m48.761905 572.952381c46.32381-15.44127 95.085714-28.444444 134.907937-25.19365 30.88254 2.438095 60.952381 14.628571 86.146031 25.19365 44.698413 19.504762 88.584127 43.885714 130.844445 67.453969 66.64127 36.571429 134.907937 73.955556 208.863492 95.898412-51.2 17.066667-105.650794 26.819048-162.539683 26.819048-160.914286 0-304.761905-73.955556-398.222222-190.171429z" fill="#d81e06" p-id="45651"></path></svg>