<?xml version="1.0" standalone="no"?><!DOCTYPE svg PUBLIC "-//W3C//DTD SVG 1.1//EN" "http://www.w3.org/Graphics/SVG/1.1/DTD/svg11.dtd"><svg t="1704898254192" class="icon" viewBox="0 0 1024 1024" version="1.1" xmlns="http://www.w3.org/2000/svg" p-id="63363" xmlns:xlink="http://www.w3.org/1999/xlink" width="200" height="200"><path d="M128 298.666667a85.333333 85.333333 0 0 0-85.333333 85.333333v256a85.333333 85.333333 0 0 0 85.333333 85.333333h42.666667v42.666667a85.333333 85.333333 0 1 0 170.666666 0v-170.666667h341.333334v170.666667a85.333333 85.333333 0 1 0 170.666666 0v-42.666667h42.666667a85.333333 85.333333 0 0 0 85.333333-85.333333V384a85.333333 85.333333 0 0 0-85.333333-85.333333h-42.666667V256a85.333333 85.333333 0 1 0-170.666666 0v170.666667H341.333333V256a85.333333 85.333333 0 1 0-170.666666 0v42.666667H128z" fill="#2c2c2c" p-id="63364"></path></svg>