<?xml version="1.0" standalone="no"?><!DOCTYPE svg PUBLIC "-//W3C//DTD SVG 1.1//EN" "http://www.w3.org/Graphics/SVG/1.1/DTD/svg11.dtd"><svg t="1704891680199" class="icon" viewBox="0 0 1024 1024" version="1.1" xmlns="http://www.w3.org/2000/svg" p-id="52044" xmlns:xlink="http://www.w3.org/1999/xlink" width="200" height="200"><path d="M917.536508 199.92381l-49.574603-8.939683c-39.822222-43.885714-86.95873-79.644444-139.784127-106.463492l-22.755556-47.136508c84.520635 34.946032 157.663492 91.834921 212.114286 162.539683z m-422.603175 126.780952L344.584127 436.419048l-125.155556-24.380953-38.196825-197.485714C219.428571 172.292063 264.126984 138.971429 315.326984 113.777778l179.606349 88.584127v124.342857z m17.066667 30.069841l143.034921 104.025397-54.450794 168.228571H423.415873l-54.450794-168.228571L512 356.774603zM335.644444 469.739683l56.076191 173.91746-83.707937 105.650794-201.549206-43.885715c-15.44127-33.320635-26.819048-68.266667-34.133333-104.025397l138.15873-156.038095 125.155555 24.380953z m83.707937 194.23492h186.107936l88.584127 103.212699-78.831746 183.669841c-62.577778 14.628571-128.406349 16.253968-192.609523 3.250794L335.644444 770.438095l83.707937-106.463492z m212.926984-21.130159l56.076191-173.104761 125.968254-23.568254 136.533333 154.412698c-5.688889 31.695238-15.44127 61.765079-27.631746 91.022222l-203.987302 52.825397-86.95873-101.587302z m173.91746-229.99365l-126.780952 23.568254-150.349206-109.714286V202.361905L708.673016 113.777778c51.2 25.193651 97.52381 60.139683 135.720635 102.4l-38.196826 196.673016zM364.088889 21.942857c6.501587-1.625397 13.003175-4.063492 19.504762-5.688889 0.812698 0 2.438095-0.812698 3.250793-0.812698 5.688889-1.625397 12.190476-3.250794 17.879366-4.063492 3.250794-0.812698 5.688889-1.625397 8.939682-1.625397l12.190476-2.438095c3.250794-0.812698 7.314286-1.625397 10.56508-1.625397 6.501587-0.812698 12.190476-1.625397 18.692063-2.438095 4.87619-0.812698 8.939683-0.812698 13.815873-1.625397 2.438095 0 5.688889-0.812698 8.126984-0.812699 4.87619 0 8.939683-0.812698 13.815873-0.812698H531.504762c4.87619 0 8.939683 0.812698 13.815873 0.812698 2.438095 0 5.688889 0 8.126984 0.812699 4.87619 0 8.939683 0.812698 13.815873 1.625397 6.501587 0.812698 13.003175 1.625397 18.692064 2.438095 3.250794 0.812698 7.314286 0.812698 10.565079 1.625397 4.063492 0.812698 8.126984 1.625397 13.003175 2.438095 3.250794 0.812698 5.688889 0.812698 8.939682 1.625397 6.501587 1.625397 12.190476 2.438095 18.692064 4.063492 0.812698 0 2.438095 0.812698 3.250793 0.812698 6.501587 1.625397 13.003175 3.250794 19.504762 5.688889l30.069841 63.390476L512 172.292063 334.019048 84.520635l30.069841-62.577778z m-45.511111 16.253968l-22.755556 47.136508C243.809524 111.339683 196.673016 146.285714 156.850794 190.171429l-49.574604 8.939682c54.450794-70.704762 127.593651-126.780952 211.301588-160.914286zM0 512c0-8.126984 0-15.44127 0.812698-23.568254v-6.501587c0-6.501587 0.812698-13.003175 1.625397-19.504762v-4.063492l2.438095-21.942857c0-2.438095 0.812698-4.87619 0.812699-7.314286 0.812698-5.688889 1.625397-11.377778 3.250794-16.253968 0.812698-2.438095 0.812698-4.063492 1.625396-6.501588 1.625397-7.314286 3.250794-13.815873 4.876191-21.130158 0.812698-1.625397 1.625397-3.250794 1.625397-4.876191 1.625397-5.688889 3.250794-11.377778 4.87619-16.253968 0.812698-2.438095 1.625397-4.063492 1.625397-6.501587 4.87619-14.628571 9.752381-28.444444 15.44127-42.260318 0.812698-1.625397 1.625397-3.250794 1.625397-4.063492 2.438095-6.501587 5.688889-12.190476 8.126984-18.692063 0-0.812698 0.812698-1.625397 0.812698-2.438096 7.314286-14.628571 14.628571-28.444444 22.755556-42.260317 0-0.812698 0.812698-0.812698 0.812698-1.625397 1.625397-2.438095 3.250794-4.87619 4.063492-6.501587l69.892064-13.003175 37.384127 195.047619-130.031746 147.911111L0 522.565079V512z m68.266667 255.187302c-34.133333-59.326984-56.888889-125.155556-65.015873-195.860318l34.133333 29.257143c7.314286 43.073016 21.130159 85.333333 40.634921 125.155556l-9.752381 41.447619z m26.006349 40.63492l15.44127-66.64127 194.23492 41.447619 84.520635 179.60635-58.514285 28.444444c-95.085714-36.571429-177.168254-100.774603-235.68254-182.857143zM512 1024c-46.32381 0-91.834921-6.501587-134.907937-17.879365l37.384127-17.879365c32.507937 6.501587 65.015873 10.565079 97.52381 10.565079 36.571429 0 72.330159-4.063492 107.27619-12.190476l38.196826 17.066667c-45.511111 13.003175-95.085714 20.31746-145.473016 20.31746z m223.492063-51.2c-1.625397 0.812698-2.438095 1.625397-4.063492 1.625397-4.87619 2.438095-10.565079 4.87619-15.441269 7.314286-2.438095 0.812698-4.87619 2.438095-7.314286 3.250793-0.812698 0-1.625397 0.812698-2.438095 0.812699l-56.888889-25.193651 77.206349-182.857143 191.796825-49.574603 18.692064 69.079365c-50.387302 74.768254-120.279365 135.720635-201.549207 175.542857z m225.930159-216.177778l-11.377778-40.63492c16.253968-35.75873 28.444444-73.142857 35.758731-112.152381l34.133333-30.069842c-8.126984 65.828571-28.444444 127.593651-58.514286 182.857143z m62.577778-230.806349l-52.012698 45.511111L839.51746 422.603175l37.384127-195.047619 68.266667 12.190476c1.625397 1.625397 2.438095 4.063492 4.063492 5.688889 0 0.812698 0.812698 0.812698 0.812698 1.625396 4.063492 6.501587 8.126984 13.003175 11.377778 19.504762 0 0 0 0.812698 0.812699 0.812699 4.063492 7.314286 7.314286 13.815873 10.565079 21.130159 0 0.812698 0.812698 1.625397 0.812698 1.625396 3.250794 6.501587 5.688889 12.190476 8.126985 18.692064 0.812698 1.625397 1.625397 3.250794 1.625396 4.87619 2.438095 6.501587 5.688889 13.815873 8.126984 20.317461v0.812698c2.438095 7.314286 4.87619 13.815873 7.314286 21.130159 0.812698 2.438095 1.625397 4.063492 1.625397 6.501587 1.625397 5.688889 3.250794 10.565079 4.876191 16.253968 0.812698 1.625397 0.812698 4.063492 1.625396 5.688889 1.625397 7.314286 3.250794 13.815873 4.876191 21.130159 0.812698 2.438095 0.812698 4.063492 1.625397 6.501587 0.812698 5.688889 2.438095 10.565079 3.250793 16.253968 0 2.438095 0.812698 4.87619 0.812699 7.314286l2.438095 21.942857v4.063492c0.812698 6.501587 0.812698 13.003175 1.625397 19.504762v6.501588c0 8.126984 0.812698 15.44127 0.812698 23.568254 1.625397 5.688889 1.625397 9.752381 1.625397 14.628571z" fill="#1afa29" p-id="52045"></path></svg>