<?xml version="1.0" standalone="no"?><!DOCTYPE svg PUBLIC "-//W3C//DTD SVG 1.1//EN" "http://www.w3.org/Graphics/SVG/1.1/DTD/svg11.dtd"><svg t="1704892127516" class="icon" viewBox="0 0 1024 1024" version="1.1" xmlns="http://www.w3.org/2000/svg" p-id="61274" xmlns:xlink="http://www.w3.org/1999/xlink" width="200" height="200"><path d="M512.5 261.9m-86.4 0a86.4 86.4 0 1 0 172.8 0 86.4 86.4 0 1 0-172.8 0Z" fill="#000000" p-id="61275"></path><path d="M462 727.4h101.1c14.5 0 26.3-11.7 26.3-26.2l0.1-293.2c0-14.5-11.7-26.3-26.2-26.3H462.2c-14.5 0-26.3 11.7-26.3 26.2l-0.1 293.2c-0.1 14.6 11.7 26.3 26.2 26.3z" fill="#000000" p-id="61276"></path><path d="M218.3 655.6c-15.9 0-30.6-10.2-35.6-26.1-6.2-19.6 4.8-40.6 24.4-46.7 68.3-21.4 128.9-58.9 175-108.3 19.2-20.5 36.2-43.4 50.5-68 10.4-17.8 33.2-23.8 51-13.3 17.8 10.4 23.7 33.2 13.3 51-17.1 29.3-37.4 56.6-60.3 81.1C381.7 584.2 310 628.7 229.3 654c-3.6 1.1-7.3 1.6-11 1.6zM809.8 655.6c-3.7 0-7.4-0.6-11.2-1.7-80.6-25.2-152.3-69.7-207.3-128.6-22.9-24.6-43.2-51.9-60.3-81.1-10.4-17.8-4.4-40.6 13.3-51 17.8-10.4 40.6-4.4 51 13.3 14.4 24.5 31.4 47.4 50.5 68 46.2 49.5 106.7 87 175 108.3 19.6 6.2 30.6 27.1 24.4 46.7-4.9 15.9-19.6 26.1-35.4 26.1z" fill="#000000" p-id="61277"></path><path d="M818.5 504.4c-20.6 0-37.3-16.7-37.3-37.3v-124c0-148.1-120.5-268.5-268.6-268.5S244.1 195 244.1 343.1v124c0 20.6-16.7 37.3-37.3 37.3s-37.3-16.7-37.3-37.3v-124C169.6 153.9 323.5 0 512.7 0s343.1 153.9 343.1 343.1v124c0 20.6-16.7 37.3-37.3 37.3zM471.8 874.9c-20.6 0-37.3-16.7-37.3-37.3V684.3c0-20.6 16.7-37.3 37.3-37.3s37.3 16.7 37.3 37.3v153.4c0 20.6-16.7 37.2-37.3 37.2zM552.6 1023.3c-20.6 0-37.3-16.7-37.3-37.3V683.6c0-20.6 16.7-37.3 37.3-37.3s37.3 16.7 37.3 37.3V986c-0.1 20.6-16.7 37.3-37.3 37.3z" fill="#000000" p-id="61278"></path></svg>