<?xml version="1.0" standalone="no"?><!DOCTYPE svg PUBLIC "-//W3C//DTD SVG 1.1//EN" "http://www.w3.org/Graphics/SVG/1.1/DTD/svg11.dtd"><svg t="1704890809164" class="icon" viewBox="0 0 1024 1024" version="1.1" xmlns="http://www.w3.org/2000/svg" p-id="19786" xmlns:xlink="http://www.w3.org/1999/xlink" width="200" height="200"><path d="M551.04 218.56a64.64 64.64 0 1 0 64.64-64.64 64.746667 64.746667 0 0 0-64.64 64.64zM343.36 569.706667A64 64 0 0 1 298.666667 461.12l161.6-160a64 64 0 1 1 89.386666 90.133333l-161.6 160a63.253333 63.253333 0 0 1-44.693333 18.453334z" fill="#1afa29" p-id="19787"></path><path d="M750.72 498.24h-138.666667a28.16 28.16 0 0 1-24.853333-14.826667l-77.653333-144.32a28.266667 28.266667 0 0 1 49.706666-26.773333L629.333333 441.813333h121.386667a28.266667 28.266667 0 1 1 0 56.426667zM513.173333 796.586667h-0.64a42.666667 42.666667 0 0 1-41.706666-42.666667l2.24-144.32-152.106667-42.666667a42.666667 42.666667 0 0 1 23.146667-81.493333l183.36 52.16a42.666667 42.666667 0 0 1 30.72 41.386667l-2.666667 176.746666a42.666667 42.666667 0 0 1-42.346667 40.853334z" fill="#1afa29" p-id="19788"></path><path d="M285.866667 893.44a139.2 139.2 0 1 1 138.666666-139.2 139.413333 139.413333 0 0 1-138.666666 139.2z m0-221.44a82.773333 82.773333 0 1 0 82.666666 82.773333A82.88 82.88 0 0 0 285.866667 672zM742.293333 893.44a138.666667 138.666667 0 1 1 138.666667-139.2 139.413333 139.413333 0 0 1-138.666667 139.2z m0-221.973333a82.773333 82.773333 0 1 0 82.773334 82.773333A82.88 82.88 0 0 0 742.293333 672z" fill="#1afa29" p-id="19789"></path></svg>