<?xml version="1.0" standalone="no"?><!DOCTYPE svg PUBLIC "-//W3C//DTD SVG 1.1//EN" "http://www.w3.org/Graphics/SVG/1.1/DTD/svg11.dtd"><svg t="1704898461533" class="icon" viewBox="0 0 1091 1024" version="1.1" xmlns="http://www.w3.org/2000/svg" p-id="66211" xmlns:xlink="http://www.w3.org/1999/xlink" width="213.0859375" height="200"><path d="M480.69326 170.950482c37.862692-6.429514 62.866356 10.715856 83.583678 40.005863 32.861959 47.149767 73.582212 87.15563 118.588808 122.16076 17.14537 12.859027 30.718788 15.002199 50.721719 2.857562 60.723185-37.148301 122.875151-72.867822 184.312726-107.872952 78.582945-44.292205 133.591007-12.859027 134.305398 77.154164 0.71439 117.874418 0 235.748836 0 353.623254 0 52.1505-11.430247 64.295137-67.152699 70.724651 20.002932 62.151966 40.005863 123.589541 59.294404 185.027116 2.857562 9.287075 12.144637 10.001466 19.288541 14.287808 25.718055 17.85976 35.00513 47.864158 20.002932 70.724651-16.430979 25.003664-40.005863 29.290007-65.723918 18.574151-25.003664-10.001466-35.719521-40.720253-22.146103-68.58148 5.715123-12.144637 5.000733-21.431712 0.714391-32.861959-30.718788-92.156363-61.437575-184.312726-90.727583-277.183479-6.429514-20.717322-13.573418-24.289274-34.290739-16.43098-235.748836 90.013192-472.212062 180.026384-707.960898 268.610795-20.002932 7.858295-28.575616 13.573418-20.002931 39.291473 13.573418 39.291473-6.429514 76.439774-40.005863 87.87002-42.863425 14.287808-80.726116-2.143171-96.442706-42.863425-16.430979-41.434644-4.286342-75.725384 37.862692-93.585143 38.577082-16.430979 79.297336-29.290007 127.161493-46.435377-25.003664-5.715123-41.434644-11.430247-50.721719-30.718788-18.574151-40.005863-14.287808-54.293671 26.432445-70.01026C307.81078 675.310112 467.119842 615.301318 627.143294 555.292523c12.859027-5.000733 27.861226-6.429514 39.291473-20.002931-40.720253-2.143171-70.01026-21.431712-97.157096-47.864158-27.861226-27.861226-61.437575-50.721719-85.72685-80.726116-39.291473-48.578548-89.298801-60.008795-147.878815-57.151233-35.719521 1.428781-71.439041-0.71439-107.158561-1.428781-25.718055-0.71439-38.577082-12.859027-36.433911-40.720253 5.715123-63.580747 11.430247-127.875884 16.430979-192.171021 1.428781-16.430979 8.572685-22.860493 23.574884-25.003664 61.437575-8.572685 70.724651-0.71439 67.152698 61.437575-1.428781 25.003664-2.857562 50.007329-5.715123 74.296603-2.143171 20.717322 4.286342 26.432445 25.003665 25.003664 67.867089-4.286342 100.729048-20.717322 132.162226-68.581479l-0.714391 0.71439c10.001466 6.429514 12.144637-1.428781 15.716589-7.858294l-1.428781 0.71439c5.000733-2.857562 15.002199 3.571952 15.002199-7.858295l1.428781 2.857562z m-170.739308 614.375754c7.858295-0.71439 16.430979 0.71439 21.431712-7.143904 7.858295-0.71439 17.14537 1.428781 20.002931-9.287076 0.71439-2.143171-2.857562-7.143904-4.286342-7.143904-9.287075 0-15.002199 5.715123-16.430979 15.002199-9.287075-3.571952-19.288541-8.572685-21.431713 7.858294-0.71439 1.428781-0.71439 2.143171-1.428781 3.571952 0.71439-1.428781 1.428781-2.143171 2.143172-2.857561z m515.789876-341.478617c5.715123 7.858295 11.430247 4.286342 17.14537 4.286343 45.720986 0 59.294404 12.144637 67.867089 58.580013 2.857562 15.716589 10.715856 31.433178 16.43098 46.435377 5.000733-57.865623 7.858295-113.588075 0.71439-173.59687-37.148301 23.574884-69.29587 44.292205-102.157829 64.295137z m-43.577815 159.309062c35.00513 2.143171 62.866356-15.716589 92.870754-25.003665 8.572685-2.857562 10.715856-7.143904 7.858294-15.716589-2.857562-8.572685-5.715123-15.716589-17.14537-12.859027-22.146103 5.000733-41.434644-5.000733-65.723917-17.14537 17.14537 33.576349 14.287808 56.436842-17.859761 70.724651z m22.860494-142.878082c-28.575616 15.716589-50.721719 28.575616-73.582213 40.005863-6.429514 3.571952-15.002199 5.715123-12.144637 13.573417 3.571952 10.001466 11.430247 2.857562 17.14537 0.714391 20.002932-7.858295 39.291473-14.287808 62.151966 10.001466-5.715123-25.003664-0.71439-42.149034 6.429514-64.295137zM695.724774 644.591325c6.429514-3.571952 10.715856-7.143904 14.287808-7.143904 13.573418 0.71439 20.002932-5.000733 7.858294-13.573418-7.143904-5.000733-20.002932 2.857562-22.146102 20.717322z m-194.314192 73.582212c10.001466-12.859027 22.146103-3.571952 28.575616-15.002199 0.71439-1.428781-2.857562-7.858295-4.286342-7.858294-11.430247-0.71439-20.002932 2.857562-24.289274 22.860493z m162.166623-70.724651c-5.715123-5.715123-11.430247-2.143171-15.716589 0.714391-6.429514 3.571952-12.144637 7.143904-6.429514 16.430979 6.429514-7.858295 19.288541-5.715123 22.146103-17.14537z m-192.17102 75.725384c-12.859027-6.429514-22.860493-4.286342-25.003665 13.573418 10.001466-5.715123 17.14537-10.001466 25.003665-13.573418z m125.018321-47.864158c-1.428781-1.428781-2.857562-4.286342-4.286342-4.286342-5.000733-0.71439-9.287075 1.428781-10.001466 7.143904-0.71439 2.857562-0.71439 7.858295 4.286343 6.429514 3.571952-1.428781 6.429514-5.715123 10.001465-9.287076z m-182.169554 70.724651c1.428781-2.143171 3.571952-5.000733 5.000732-7.143904-2.143171-1.428781-4.286342-3.571952-5.715123-2.857562-2.857562 0.71439-7.143904 2.857562-7.143904 5.000733-1.428781 4.286342 2.143171 5.715123 7.858295 5.000733z m210.03078-77.154164c-1.428781-3.571952-2.143171-5.715123-2.857561-7.858295-2.143171 2.143171-5.000733 5.000733-6.429514 7.858295-0.71439 1.428781 1.428781 3.571952 2.143171 5.715123 2.143171-1.428781 4.286342-3.571952 7.143904-5.715123z m135.019788-52.1505c-1.428781-2.143171-2.143171-3.571952-2.857561-5.715124-0.71439 1.428781-2.857562 3.571952-2.857562 5.000733 0 1.428781 2.143171 3.571952 2.857562 5.715124 0.71439-1.428781 2.143171-2.857562 2.857561-5.000733z m-195.742972 65.723917c-1.428781 2.143171-2.857562 3.571952-2.857562 5.715124 0 2.143171 1.428781 3.571952 2.857562 5.715123 1.428781-1.428781 2.857562-3.571952 2.857561-5.000733 0-2.143171-2.143171-4.286342-2.857561-6.429514z m-78.582946 28.575617c-1.428781 2.143171-2.857562 3.571952-2.857561 5.715123 0 2.143171 1.428781 3.571952 2.143171 5.715123 1.428781-1.428781 2.857562-3.571952 2.857562-5.000732 0.71439-2.143171-1.428781-4.286342-2.143172-6.429514z m-192.885411 71.439041c-1.428781 2.143171-2.857562 3.571952-2.857561 5.000733 0 2.143171 1.428781 3.571952 2.143171 5.715123 1.428781-1.428781 2.857562-3.571952 2.857562-5.000733 0.71439-1.428781-1.428781-3.571952-2.143172-5.715123z m-54.293671 27.146836c-1.428781-1.428781-2.143171-3.571952-3.571952-5.000733-0.71439 1.428781-2.857562 3.571952-2.857562 5.000733 0 1.428781 2.143171 3.571952 2.857562 5.000733 1.428781-1.428781 2.857562-3.571952 3.571952-5.000733z m-24.289274 12.859027c0.71439-2.143171 2.857562-3.571952 2.857562-5.715123 0-1.428781-2.143171-3.571952-2.857562-5.000733-0.71439 1.428781-2.857562 3.571952-2.857562 5.000733 0 1.428781 1.428781 3.571952 2.857562 5.715123z m-29.290007 11.430247c2.143171-0.71439 3.571952-2.143171 5.715124-2.857562-1.428781-1.428781-3.571952-2.857562-5.000733-2.857562-2.143171 0-3.571952 1.428781-5.715124 2.857562 2.143171 0.71439 3.571952 2.143171 5.000733 2.857562z m520.79061-310.045439c-2.143171 0-3.571952 0-5.715123-0.71439 0.71439 0.71439 1.428781 2.143171 2.857561 2.143171s2.143171-0.71439 2.857562-1.428781z m-322.190075 236.463226c0-2.857562-0.71439-3.571952-3.571953-1.428781 0 0 0.71439 1.428781 0.714391 2.857562 0.71439-0.71439 2.143171-0.71439 2.857562-1.428781z" fill="#040404" p-id="66212"></path><path d="M452.832034 183.809509l-27.861226 2.143172c-46.435377 4.286342-86.44124-20.717322-100.014658-62.151966-13.573418-41.434644 4.286342-87.870021 41.434644-110.730514 38.577082-22.860493 85.726849-15.002199 116.445637 17.85976 30.004397 32.861959 32.861959 77.868555 7.143904 117.874418-4.286342 6.429514-17.14537 10.001466-9.287075 22.146103l0.71439-0.71439c-10.001466-6.429514-14.287808-2.143171-15.002198 7.858294l1.42878-0.71439c-7.143904-2.143171-14.287808-2.857562-15.716589 7.858294l0.714391-1.428781zM695.724774 644.591325c2.143171-17.85976 15.002199-25.003664 22.146102-20.717322 12.144637 8.572685 5.715123 14.287808-7.858294 13.573418-4.286342-0.71439-7.858295 3.571952-14.287808 7.143904zM501.410582 718.173537c4.286342-20.002932 12.859027-23.574884 24.289274-22.860493 1.428781 0 5.000733 6.429514 4.286342 7.858294-6.429514 11.430247-18.574151 2.143171-28.575616 15.002199zM663.577205 647.448886c-2.857562 11.430247-16.430979 9.287075-22.146103 17.14537-5.715123-9.287075 0-13.573418 6.429514-16.430979 5.000733-2.857562 10.001466-7.143904 15.716589-0.714391zM471.406185 723.17427c-7.143904 4.286342-15.002199 8.572685-25.003665 13.573418 1.428781-18.574151 11.430247-20.002932 25.003665-13.573418zM330.671274 776.03916c1.428781-9.287075 7.143904-15.002199 16.430979-15.002198 1.428781 0 5.000733 5.000733 4.286342 7.143904-2.857562 10.715856-12.144637 8.572685-20.002931 9.287075l-0.71439-1.428781zM596.424506 675.310112c-3.571952 3.571952-6.429514 7.858295-10.001465 9.287076-5.000733 2.143171-4.286342-3.571952-4.286343-6.429514 0.71439-5.715123 5.000733-7.858295 10.001466-7.143904 1.428781 0 2.857562 2.857562 4.286342 4.286342zM414.254952 746.034763c-5.000733 0.71439-8.572685-1.428781-7.858295-5.000733 0.71439-2.143171 4.286342-4.286342 7.143904-5.000733 1.428781-0.71439 3.571952 2.143171 5.715123 2.857562-2.143171 2.857562-3.571952 5.000733-5.000732 7.143904zM309.239561 783.897455c1.428781-17.14537 12.144637-11.430247 21.431713-7.858295l0.71439 1.428781c-5.000733 7.858295-13.573418 6.429514-21.431712 7.143904l-0.714391-0.71439zM624.285732 668.880599c-2.143171 1.428781-5.000733 3.571952-7.143904 5.715123-0.71439-2.143171-2.857562-4.286342-2.143171-5.715123 1.428781-2.857562 4.286342-5.000733 6.429514-7.858295 0.71439 2.857562 1.428781 5.000733 2.857561 7.858295zM759.30552 616.730099c-1.428781 2.143171-2.143171 3.571952-2.857561 5.000733-0.71439-2.143171-2.857562-3.571952-2.857562-5.715124 0-1.428781 2.143171-3.571952 2.857562-5.000733 0.71439 2.143171 2.143171 3.571952 2.857561 5.715124zM563.562548 682.454016c0.71439 2.143171 2.857562 4.286342 2.857561 5.715124 0 1.428781-2.143171 3.571952-2.857561 5.000733-0.71439-2.143171-2.857562-3.571952-2.857562-5.715124 0-1.428781 1.428781-2.857562 2.857562-5.000733zM484.979602 711.029633c0.71439 2.143171 2.857562 4.286342 2.857562 5.715123 0 1.428781-2.143171 3.571952-2.857562 5.000733-0.71439-2.143171-2.857562-3.571952-2.143171-5.715123-0.71439-1.428781 0.71439-2.857562 2.143171-5.000733zM292.094191 782.468674c0.71439 2.143171 2.857562 4.286342 2.857562 5.715123 0 1.428781-2.143171 3.571952-2.857562 5.000733-0.71439-2.143171-2.857562-3.571952-2.143171-5.715123-0.71439-1.428781 0.71439-2.857562 2.143171-5.000733zM237.80052 809.61551c-0.71439 2.143171-2.143171 3.571952-2.857562 5.000733-0.71439-1.428781-2.857562-3.571952-2.857561-5.000733 0-1.428781 1.428781-3.571952 2.857561-5.000733 0.71439 1.428781 1.428781 2.857562 2.857562 5.000733zM213.511246 822.474537c-1.428781-2.143171-2.857562-3.571952-2.857562-5.715123 0-1.428781 1.428781-3.571952 2.857562-5.000733 0.71439 1.428781 2.857562 3.571952 2.857562 5.000733 0 1.428781-2.143171 3.571952-2.857562 5.715123zM184.221239 833.904784c-1.428781-1.428781-3.571952-2.143171-5.000733-3.571952 2.143171-0.71439 3.571952-2.857562 5.715124-2.857562 1.428781 0 3.571952 2.143171 5.000733 2.857562-1.428781 2.143171-3.571952 2.857562-5.715124 3.571952zM705.011849 523.859345c-0.71439 0.71439-2.143171 1.428781-2.857562 1.428781-0.71439 0-1.428781-1.428781-2.857561-2.143171 2.143171 0.71439 4.286342 0.71439 5.715123 0.71439zM382.821774 760.322571c-0.71439 0-2.143171 0.71439-2.857562 0.714391 0-0.71439-0.71439-2.143171-0.714391-2.857562 2.857562-1.428781 4.286342-0.71439 3.571953 2.143171zM309.953952 785.326236c-0.71439 0.71439-1.428781 2.143171-2.143172 2.857561 0.71439-1.428781 0.71439-2.143171 1.428781-3.571952 0-0.71439 0.71439 0.71439 0.714391 0.714391z" fill="#050505" p-id="66213"></path></svg>