<?xml version="1.0" standalone="no"?><!DOCTYPE svg PUBLIC "-//W3C//DTD SVG 1.1//EN" "http://www.w3.org/Graphics/SVG/1.1/DTD/svg11.dtd"><svg t="1704891277412" class="icon" viewBox="0 0 1024 1024" version="1.1" xmlns="http://www.w3.org/2000/svg" p-id="39655" xmlns:xlink="http://www.w3.org/1999/xlink" width="200" height="200"><path d="M640 277.333333A106.666667 106.666667 0 1 1 746.666667 384 107.093333 107.093333 0 0 1 640 277.333333z m275.626667 362.666667c-91.733333 5.12-106.24 42.666667-190.293334 42.666667-92.16 0-100.266667-42.666667-213.333333-42.666667s-122.453333 42.666667-213.333333 42.666667-98.56-36.693333-190.293334-42.666667a21.333333 21.333333 0 0 0-23.04 21.333333v42.666667a21.333333 21.333333 0 0 0 19.2 21.333333c74.24 5.12 89.173333 42.666667 194.133334 42.666667 115.626667 0 118.186667-42.666667 213.333333-42.666667s100.693333 42.666667 213.333333 42.666667c104.533333 0 120.746667-36.693333 194.133334-42.666667a21.333333 21.333333 0 0 0 19.2-21.333333v-42.666667a21.333333 21.333333 0 0 0-23.04-21.333333z m0 170.666667c-91.733333 5.12-106.24 42.666667-190.293334 42.666666-92.16 0-100.266667-42.666667-213.333333-42.666666s-122.453333 42.666667-213.333333 42.666666-98.56-36.693333-190.293334-42.666666a21.333333 21.333333 0 0 0-23.04 21.333333v42.666667a21.333333 21.333333 0 0 0 19.2 21.333333c74.24 5.12 89.173333 42.666667 194.133334 42.666667 115.626667 0 118.186667-42.666667 213.333333-42.666667s100.693333 42.666667 213.333333 42.666667c104.533333 0 120.746667-36.693333 194.133334-42.666667a21.333333 21.333333 0 0 0 19.2-21.333333v-42.666667a21.333333 21.333333 0 0 0-23.04-21.333333zM234.666667 320h132.693333a85.333333 85.333333 0 0 1 59.306667 25.173333L469.333333 384l-208.64 208.64A137.386667 137.386667 0 0 0 298.666667 597.333333c59.733333 0 90.026667-42.666667 213.333333-42.666666s151.893333 42.666667 213.333333 42.666666a213.333333 213.333333 0 0 0 85.333334-21.76l-298.666667-298.666666A213.333333 213.333333 0 0 0 358.826667 213.333333H234.666667a21.333333 21.333333 0 0 0-21.333334 21.333334V298.666667a21.333333 21.333333 0 0 0 21.333334 21.333333z" p-id="39656"></path></svg>