<?xml version="1.0" standalone="no"?><!DOCTYPE svg PUBLIC "-//W3C//DTD SVG 1.1//EN" "http://www.w3.org/Graphics/SVG/1.1/DTD/svg11.dtd"><svg t="1704891849374" class="icon" viewBox="0 0 1024 1024" version="1.1" xmlns="http://www.w3.org/2000/svg" p-id="55719" xmlns:xlink="http://www.w3.org/1999/xlink" width="200" height="200"><path d="M868.48 772.28l-114.8-106.97c-5.27-11.11-7.99-23.73-9.82-34.6-3.21-19.27-4.33-40.49-3.51-66.8 0.81-26.2 4.29-52.53 8.09-79.46 3.54-25.22 3.77-51.38 0.69-77.73-0.97-8.34-2.27-16.67-3.84-24.77-3.12-16.02-7.46-31.9-12.89-47.19a326.397 326.397 0 0 0-33.14-67.45 331.05 331.05 0 0 0-44.12-54.65c-62.05-62.05-144.55-96.22-232.3-96.22s-170.25 34.17-232.3 96.22l-1.15 1.15c-62.05 62.05-96.22 144.55-96.22 232.3s34.17 170.25 96.22 232.3c16.63 16.63 35.01 31.47 54.65 44.12a326.32 326.32 0 0 0 67.44 33.14c15.29 5.44 31.17 9.78 47.2 12.89a331.1 331.1 0 0 0 24.77 3.84c26.36 3.08 52.52 2.84 77.74-0.69 26.93-3.8 53.26-7.28 79.45-8.09 26.32-0.82 47.54 0.29 66.8 3.51 10.88 1.82 23.5 4.54 34.61 9.82l106.97 114.8c5.17 5.54 12.41 8.68 20.39 8.82h0.57c9.36 0 18.79-4.08 25.96-11.26l70.11-70.11c7.32-7.32 11.42-16.99 11.25-26.53-0.14-7.98-3.27-15.23-8.82-20.39z m-258.73-18.96c-20.19-3.37-42.29-4.54-69.54-3.69-26.89 0.83-53.65 4.36-80.97 8.22-24.04 3.37-48.99 3.59-74.17 0.65-3.66-0.43-7.32-0.93-10.96-1.48l359.64-359.64c0.55 3.64 1.05 7.3 1.48 10.96 2.94 25.17 2.72 50.13-0.65 74.16-3.86 27.32-7.39 54.07-8.22 80.97-0.85 27.25 0.33 49.35 3.7 69.54 0.67 4 1.46 8.23 2.43 12.54l-52.21-48.66c-5.84-5.73-14.16-8.48-22.88-7.57-7.99 0.85-15.72 4.65-21.78 10.7l-58.84 58.84c-6.05 6.05-9.85 13.79-10.7 21.78-0.92 8.72 1.84 17.04 7.57 22.88l48.65 52.21c-4.32-0.95-8.54-1.74-12.55-2.41z m239.49 49.06l-70.11 70.11c-2.7 2.7-6.11 4.29-9.15 4.29h-0.15c-1.52-0.03-2.66-0.45-3.42-1.26L590.91 687.2l-0.29-0.3c-1.02-1.02-1.01-2.78-0.91-3.74 0.27-2.56 1.68-5.28 3.87-7.47l58.84-58.84c2.19-2.19 4.91-3.6 7.47-3.87 0.24-0.03 0.53-0.05 0.84-0.05 0.95 0 2.13 0.18 2.9 0.95l188.64 175.79c0.81 0.75 1.23 1.9 1.26 3.42 0.06 3.08-1.55 6.55-4.29 9.29zM845.36 136.4c-43.26 0-78.46 35.2-78.46 78.46 0 43.26 35.2 78.46 78.46 78.46s78.46-35.2 78.46-78.46c0-43.26-35.2-78.46-78.46-78.46z m0 133.15c-30.16 0-54.69-24.53-54.69-54.69 0-30.16 24.53-54.69 54.69-54.69s54.69 24.53 54.69 54.69c0 30.16-24.54 54.69-54.69 54.69z" p-id="55720" fill="#1296db"></path></svg>