<?xml version="1.0" standalone="no"?><!DOCTYPE svg PUBLIC "-//W3C//DTD SVG 1.1//EN" "http://www.w3.org/Graphics/SVG/1.1/DTD/svg11.dtd"><svg t="1704890291111" class="icon" viewBox="0 0 1024 1024" version="1.1" xmlns="http://www.w3.org/2000/svg" p-id="14057" xmlns:xlink="http://www.w3.org/1999/xlink" width="200" height="200"><path d="M410.86781 100.400762a97.377524 95.427048 90 1 0 190.854095 0 97.377524 95.427048 90 1 0-190.854095 0Z" fill="#C8C8C8" p-id="14058"></path><path d="M796.038095 507.708952c-44.519619-20.870095-136.143238-50.614857-161.206857-94.354285-33.401905-58.416762-62.025143-194.413714-179.443809-193.584762-51.297524 0.292571-134.777905 86.79619-193.731048 125.805714C234.203429 363.76381 235.129905 412.623238 230.253714 441.782857L211.285333 556.373333c-6.339048 38.034286 25.014857 55.296 55.832381 38.278096 16.871619-9.264762 24.234667-32.914286 27.209143-50.712381 7.606857-45.83619 17.749333-81.578667 25.356191-127.414858l54.125714-44.81219c-18.334476 112.152381-34.962286 178.468571-51.882667 329.630476-4.973714 44.763429-10.971429 90.599619-21.308952 104.350476-33.450667 44.519619-59.050667 88.259048-92.988953 132.33981-47.981714 62.415238 37.449143 110.34819 81.432381 53.199238l90.160762-117.223619c42.569143-55.442286 40.764952-145.798095 51.882667-213.528381l101.083429 222.744381 46.811428 103.18019c29.159619 64.219429 118.979048 30.96381 88.356572-36.425142-43.398095-95.670857-78.019048-191.390476-121.465905-287.061334-13.55581-29.891048-34.816-59.001905-30.232381-91.477333l22.771809-159.695238c12.53181 21.942857 23.405714 51.882667 40.277334 70.363428 11.897905 20.870095 56.953905 33.987048 77.531428 43.690667l96.694857 45.348571c51.638857 24.234667 97.962667-37.741714 43.154286-63.439238z" fill="#C8C8C8" p-id="14059"></path></svg>